<?xml version="1.0" encoding="UTF-8" standalone="no"?>
<!-- Created with Inkscape (http://www.inkscape.org/) -->

<svg
   width="116mm"
   height="116mm"
   viewBox="0 0 116 116"
   version="1.1"
   id="svg1"
   xml:space="preserve"
   xmlns="http://www.w3.org/2000/svg"
   xmlns:svg="http://www.w3.org/2000/svg"><defs
     id="defs1" /><g
     id="layer1"
     transform="translate(-44.034126,-72.285387)"><path
       style="fill:#000000"
       d="m 89.608893,188.00206 c -7.164788,-1.60037 -11.339635,-5.8813 -12.901236,-13.22904 -0.463661,-2.18165 -0.555713,-3.51274 -0.547323,-7.91442 0.0139,-7.29082 0.692282,-12.74381 3.406793,-27.38438 1.349963,-7.28095 1.726911,-11.90433 1.166782,-14.31089 -1.068772,-4.5919 -3.95797,-6.52081 -8.751732,-5.84288 -2.707494,0.38289 -4.247564,0.51234 -7.789345,2.70841 -2.663004,1.65119 -11.737019,9.15909 -11.570077,8.81724 2.347716,-4.80743 6.785574,-9.87263 9.056535,-11.9707 5.841586,-5.39687 12.856035,-6.8478 19.42756,-6.56544 4.997675,0.21474 8.778384,2.67866 11.608253,5.70402 2.381394,2.5459 3.585012,5.81503 3.809794,10.34774 0.186684,3.76444 -0.09279,6.27173 -1.902187,17.06563 -1.835725,10.95093 -2.317784,14.98 -2.319812,20.16847 -0.0031,8.04665 2.4734,9.70269 6.919351,9.8767 5.988791,0.23439 9.081601,-0.76786 15.349561,-4.5106 10.03567,-5.99253 18.31492,-34.01158 18.93403,-68.81365 -0.3189,-0.18612 -4.24291,-0.41959 -7.48307,0.69893 5.3289,-7.542767 9.71734,-17.366585 13.83817,-30.152939 2.10661,11.605462 4.95215,21.650764 9.76655,30.889189 -1.15687,-0.0433 -5.44525,-0.97375 -6.64932,-0.98622 -2.09343,25.22552 -0.98913,56.64994 -17.96671,74.21112 -8.81034,9.07736 -22.87269,13.05767 -35.402567,11.19371 z"
       id="path1" /></g></svg>
