<svg xmlns="http://www.w3.org/2000/svg" width="960" height="480" viewBox="0 0 960 480" role="img" aria-labelledby="title desc">
  <title id="title">Generated sample landscape</title>
  <desc id="desc">A stylized sunrise landscape for markdown image testing.</desc>
  <defs>
    <linearGradient id="sky" x1="0" x2="0" y1="0" y2="1">
      <stop offset="0" stop-color="#7dd3fc"/>
      <stop offset="0.58" stop-color="#fef3c7"/>
      <stop offset="1" stop-color="#ecfccb"/>
    </linearGradient>
    <linearGradient id="hill" x1="0" x2="1" y1="0" y2="1">
      <stop offset="0" stop-color="#0f766e"/>
      <stop offset="1" stop-color="#164e63"/>
    </linearGradient>
  </defs>
  <rect width="960" height="480" fill="url(#sky)"/>
  <circle cx="720" cy="150" r="64" fill="#f59e0b" opacity="0.9"/>
  <path d="M0 338 C150 230 250 288 390 218 C525 150 650 300 795 224 C870 185 920 204 960 184 L960 480 L0 480 Z" fill="url(#hill)"/>
  <path d="M0 390 C160 330 250 380 390 318 C560 242 670 396 840 306 C900 274 930 280 960 266 L960 480 L0 480 Z" fill="#052e2b" opacity="0.82"/>
  <path d="M132 120 h210 a34 34 0 0 1 0 68 H132 a34 34 0 0 1 0-68Z" fill="#ffffff" opacity="0.62"/>
  <path d="M512 78 h180 a26 26 0 0 1 0 52 H512 a26 26 0 0 1 0-52Z" fill="#ffffff" opacity="0.48"/>
</svg>
